<?xml version="1.0" standalone="no"?><!DOCTYPE svg PUBLIC "-//W3C//DTD SVG 1.1//EN" "http://www.w3.org/Graphics/SVG/1.1/DTD/svg11.dtd"><svg t="1758177217771" class="icon" viewBox="0 0 1024 1024" version="1.1" xmlns="http://www.w3.org/2000/svg" p-id="2535" xmlns:xlink="http://www.w3.org/1999/xlink" width="256" height="256"><path d="M509.05 634.841913v257.849965c0.984-0.044 1.966-0.1 2.962-0.1 11.871998 0 23.061997 3.18 32.889996 8.771999V630.375914a121.841983 121.841983 0 0 1-35.851996 4.465999z" fill="#8BCAFF" p-id="2536"></path><path d="M512.186 635.855913a122.433983 122.433983 0 0 1-34.047995-4.495999v270.987963c9.827999-5.589999 21.015997-8.771999 32.887995-8.771999 0.39 0 0.772 0.032 1.16 0.038z" fill="#60B9FE" p-id="2537"></path><path d="M892.525948 355.699951v318.033957c11.711998-0.322 23.635997 2.414 34.669995 8.583999V347.111953c-11.037998 6.169999-22.959997 8.909999-34.669995 8.587998z" fill="#8BCAFF" p-id="2538"></path><path d="M895.661948 356.665951a67.561991 67.561991 0 0 1-35.227996-8.547999v335.159955a67.565991 67.565991 0 0 1 35.227996-8.545999z" fill="#60B9FE" p-id="2539"></path><path d="M125.572053 355.605951v318.221957c12.455998-0.786 25.239997 1.904 37.009995 8.477999V347.123953c-11.771998 6.577999-24.555997 9.265999-37.009995 8.481998z" fill="#8BCAFF" p-id="2540"></path><path d="M128.710052 356.721951a67.691991 67.691991 0 0 1-32.889995-8.613999v335.181955a67.675991 67.675991 0 0 1 32.889995-8.613999z" fill="#60B9FE" p-id="2541"></path><path d="M512.01 128.783982c-0.994 0-1.976-0.056-2.962-0.1v262.219965c12.133998-0.296 24.199997 1.246 35.849996 4.549999V119.861984c-9.825999 5.685999-21.015997 8.921999-32.887996 8.921998z" fill="#8BCAFF" p-id="2542"></path><path d="M512.186 129.725982c-0.388 0.008-0.77 0.04-1.16 0.04-11.871998 0-23.061997-3.236-32.887995-8.921999v275.587963a119.835984 119.835984 0 0 1 34.047995-4.578z" fill="#60B9FE" p-id="2543"></path><path d="M178.308046 703.623904l11.749998 24.703996 10.103999 1.686 218.40797-126.095983 7.131999-9.505998-14.909998-25.439997z" fill="#8BCAFF" p-id="2544"></path><path d="M397.888016 546.953925l-12.205999-0.002L167.286047 673.039908l-0.01 7.387999 11.921999 25.067997 232.639968-134.741982z" fill="#60B9FE" p-id="2545"></path><path d="M407.502014 455.107938l14.079998-25.517997-2.991999-9.481998-218.42797-126.103983-8.643999 2.353999-12.733998 26.683997z" fill="#8BCAFF" p-id="2546"></path><path d="M181.096045 318.195956l-13.803998 28.927997-0.024 3.845999 218.43597 126.105983 11.153999-2.676 13.229998-23.979997z" fill="#60B9FE" p-id="2547"></path><path d="M845.279954 707.887903l16.135998-25.591996-4.715999-9.261999-218.39197-126.079983h-14.647998l-11.765999 26.171997z" fill="#8BCAFF" p-id="2548"></path><path d="M834.665956 724.723901l13.471998-21.367997L614.099986 568.219922l-8.687999 19.323998v16.371997L823.809957 729.9999z" fill="#60B9FE" p-id="2549"></path><path d="M177.600046 259.911964l16.579997 24.943997 5.996 3.728 274.273962-158.357979 2.758-8.647999-15.141998-26.425996z" fill="#8BCAFF" p-id="2550"></path><path d="M450.940008 75.73799l-9.399998-2.466-274.247963 158.341978-2.214 9.459999 13.667999 20.561997 284.345961-164.689977z" fill="#60B9FE" p-id="2551"></path><path d="M848.625954 266.345964l12.789998-26.645997-4.689999-8.093999L582.47999 73.26999l-4.317999 2.64-15.755998 25.167996z" fill="#8BCAFF" p-id="2552"></path><path d="M839.987955 284.339961l10.185999-21.219997L564.299993 98.051987l-14.729998 23.525996v8.645999l274.245962 158.333979z" fill="#60B9FE" p-id="2553"></path><path d="M616.183986 450.011938l12.969998 22.155997 9.179999 4.872 218.36397-126.069983 0.028-7.911999-10.889999-26.057996z" fill="#8BCAFF" p-id="2554"></path><path d="M837.927955 298.075959l-14.117998-4.073999-218.37397 126.075983v11.571998l11.791999 20.143997 229.411968-132.871982z" fill="#60B9FE" p-id="2555"></path><path d="M845.149954 760.433896l-287.16196 166.321977 13.993998 19.961998 10.497998 4.007999 274.247963-158.331978-0.028-13.587998z" fill="#8BCAFF" p-id="2556"></path><path d="M832.089956 739.659899l-8.273999-4.22-274.247962 158.333979-4.667999 14.313998 14.275998 20.363997 287.07396-166.269977z" fill="#60B9FE" p-id="2557"></path><path d="M463.564007 928.571873l10.879998-27.207996v-7.583999l-274.269962-158.343979-9.857999 4.568-12.389998 23.635997z" fill="#8BCAFF" p-id="2558"></path><path d="M457.958007 942.595871l6.945999-17.369997-285.319961-164.747978-12.307998 23.477997v8.439999l274.263963 158.341978z" fill="#60B9FE" p-id="2559"></path><path d="M625.489984 446.485939c-16.683998-28.897996-42.725994-49.045993-72.10599-58.821992a137.245981 137.245981 0 0 0-13.193998 6.681999c-65.023991 37.535995-87.279988 120.547984-49.727993 185.581975a135.247982 135.247982 0 0 0 62.947991 56.429992 131.733982 131.733982 0 0 0 24.115997-10.875999c62.717991-36.203995 84.183988-116.269984 47.963993-178.995975z" fill="#5291D9" p-id="2560"></path><path d="M492.902003 577.517921c-36.219995-62.725991-14.753998-142.78998 47.961993-178.995975a132.245982 132.245982 0 0 1 18.315998-8.777999c-35.625995-13.735998-76.927989-11.869998-112.687985 8.777999-62.715991 36.203995-84.181988 116.269984-47.961993 178.995975 32.765996 56.749992 101.435986 79.723989 160.679978 56.741992-26.975996-10.395999-50.711993-29.731996-66.307991-56.741992z" fill="#0972D0" p-id="2561"></path><path d="M955.395939 256.011965a70.25999 70.25999 0 0 0-29.097996-27.601996c-33.293995 21.543997-44.181994 65.589991-24.119996 100.333986a74.54799 74.54799 0 0 0 24.139996 25.393997c1.096-0.56 2.182-1.148 3.26-1.77 33.759995-19.487997 45.315994-62.587991 25.817996-96.355987z" fill="#5291D9" p-id="2562"></path><path d="M903.781946 326.549955c-19.495997-33.761995-7.943999-76.857989 25.807997-96.349986-21.079997-12.161998-47.883993-13.095998-70.55199-0.006-33.761995 19.489997-45.315994 62.589991-25.819997 96.355986 19.491997 33.761995 62.591991 45.319994 96.357987 25.819997l0.008-0.006a70.25399 70.25399 0 0 1-25.801997-25.813997z" fill="#0972D0" p-id="2563"></path><path d="M573.097992 35.289995A70.25999 70.25999 0 0 0 543.999996 7.687999c-33.293995 21.543997-44.181994 65.589991-24.119997 100.333986a74.54799 74.54799 0 0 0 24.139997 25.393997c1.096-0.56 2.182-1.148 3.259999-1.77 33.759995-19.489997 45.315994-62.589991 25.817997-96.355987z" fill="#5291D9" p-id="2564"></path><path d="M521.485999 105.825986c-19.495997-33.761995-7.943999-76.857989 25.807996-96.349987-21.079997-12.161998-47.883993-13.095998-70.55199-0.006-33.761995 19.489997-45.315994 62.589991-25.819997 96.355987 19.491997 33.761995 62.591991 45.319994 96.357987 25.819996l0.008-0.006a70.23999 70.23999 0 0 1-25.801996-25.813996z" fill="#0972D0" p-id="2565"></path><path d="M190.782044 256.027965a70.25999 70.25999 0 0 0-29.097996-27.601996c-33.293995 21.543997-44.181994 65.589991-24.119997 100.333986a74.54799 74.54799 0 0 0 24.139997 25.393997c1.096-0.56 2.182-1.148 3.259999-1.77 33.759995-19.487997 45.315994-62.587991 25.817997-96.355987z" fill="#5291D9" p-id="2566"></path><path d="M139.168051 326.565955c-19.495997-33.761995-7.943999-76.857989 25.807996-96.349986-21.079997-12.161998-47.883993-13.095998-70.55199-0.006-33.761995 19.489997-45.315994 62.589991-25.819996 96.355986 19.491997 33.761995 62.591991 45.319994 96.357986 25.819997l0.008-0.006a70.23999 70.23999 0 0 1-25.801996-25.813997z" fill="#0972D0" p-id="2567"></path><path d="M955.395939 697.441905a70.25999 70.25999 0 0 0-29.097996-27.601997c-33.293995 21.543997-44.181994 65.589991-24.119996 100.333987a74.54799 74.54799 0 0 0 24.139996 25.393996c1.096-0.56 2.182-1.148 3.26-1.77 33.759995-19.489997 45.315994-62.589991 25.817996-96.355986z" fill="#5291D9" p-id="2568"></path><path d="M903.781946 767.977895c-19.495997-33.761995-7.943999-76.857989 25.807997-96.349987-21.079997-12.161998-47.883993-13.095998-70.55199-0.006-33.761995 19.489997-45.315994 62.589991-25.819997 96.355987 19.491997 33.761995 62.591991 45.319994 96.357987 25.819996l0.008-0.006a70.23999 70.23999 0 0 1-25.801997-25.813996z" fill="#0972D0" p-id="2569"></path><path d="M190.782044 697.457905a70.25999 70.25999 0 0 0-29.097996-27.601997c-33.293995 21.543997-44.181994 65.589991-24.119997 100.333987a74.54799 74.54799 0 0 0 24.139997 25.393996c1.096-0.56 2.182-1.148 3.259999-1.77 33.759995-19.489997 45.315994-62.589991 25.817997-96.355986z" fill="#5291D9" p-id="2570"></path><path d="M139.168051 767.993895c-19.495997-33.761995-7.943999-76.857989 25.807996-96.349987-21.079997-12.161998-47.883993-13.095998-70.55199-0.006-33.761995 19.489997-45.315994 62.589991-25.819996 96.355987 19.491997 33.761995 62.591991 45.319994 96.357986 25.819996l0.008-0.006a70.23999 70.23999 0 0 1-25.801996-25.813996z" fill="#0972D0" p-id="2571"></path><path d="M573.097992 918.165874A70.25999 70.25999 0 0 0 543.999996 890.563878c-33.293995 21.543997-44.181994 65.589991-24.119997 100.333987a74.54799 74.54799 0 0 0 24.139997 25.393996c1.096-0.56 2.182-1.148 3.259999-1.77 33.759995-19.487997 45.315994-62.587991 25.817997-96.355987z" fill="#5291D9" p-id="2572"></path><path d="M521.485999 988.703865c-19.495997-33.761995-7.943999-76.857989 25.807996-96.349987-21.079997-12.161998-47.883993-13.095998-70.55199-0.006-33.761995 19.489997-45.315994 62.589991-25.819997 96.355987 19.491997 33.761995 62.591991 45.319994 96.357987 25.819996l0.008-0.006a70.23999 70.23999 0 0 1-25.801996-25.813996z" fill="#0972D0" p-id="2573"></path></svg>